<svg width="1440" height="2116" viewBox="0 0 1440 2116" xmlns="http://www.w3.org/2000/svg"><style>
        text {
          font-family: system-ui, sans-serif;
          fill: #000;
        }
        .bg {
          fill: #fff;
        }
        .icon {
          fill: #000;
          opacity: 0.8;
        }

        /* header/sidebar styles */
        .header {
          fill: #f8f8f8;
        }
        .headerDate {
          font-size: 12px;
          font-weight: bold;
        }
        .logoIcon {
          fill: #4660F9;
        }
        .tick {
          fill: #666;
          font-weight: bold;
        }
        .tickLine {
          stroke: #666;
        }
        .sidebarDivider {
          stroke: #ddd;
        }

        /* track styles */
        .boxText {
          opacity: 0.7;
        }
        .date {
          fill: #999;
          font-size: 12px;
        }
        .progressOuter {
          fill: rgba(255,255,255,0.3);
        }
        .progressInner {
          fill: rgba(0,0,0,0.5);
        }
        .closedGroup &gt; text, .closedGroup &gt; use {
          fill: #999;
        }
        .subtext {
          opacity: 0.7;
        }

        /* nested track styles */
        .nestedBox {
          opacity: 0.6;
        }
        .nestedBg {
          fill: #f8f8f8;
        }
      </style><defs><filter id="shadow"><feDropShadow dx="0" dy="1" stdDeviation="1" flood-color="#ccc"></feDropShadow></filter><clipPath id="dont-overlap-sidebar"><rect x="350" y="0" width="1090" height="2116"></rect></clipPath><clipPath id="sidebar-contents"><rect x="0" y="0" width="350" height="2116"></rect></clipPath><linearGradient id="sidebarShadow" x1="0%" y1="0%" x2="100%" y2="0%"><stop offset="0%" style="stop-color: rgb(100, 100, 100); stop-opacity: 0.15;"></stop><stop offset="100%" style="stop-color: rgb(100, 100, 100); stop-opacity: 0;"></stop></linearGradient><path id="projectIcon" d="M4 4v2h8V4zm0-2h8a2 2 0 012 2v2a2 2 0 01-2 2H4a2 2 0 01-2-2V4a2 2 0 012-2zm4 9v2h12v-2zm0-2h12a2 2 0 012 2v2a2 2 0 01-2 2H8a2 2 0 01-2-2v-2a2 2 0 012-2zm-4 9v2h3v-2zm0-2h3a2 2 0 012 2v2a2 2 0 01-2 2H4a2 2 0 01-2-2v-2a2 2 0 012-2z" transform="scale(0.7)"></path><path id="epicIcon" d="M4.667 2A.667.667 0 004 2.667v11.231l3.12-2.738a1.333 1.333 0 011.76 0L12 13.898V2.667A.667.667 0 0011.333 2zM11.333.667a2 2 0 012 2v11.231a1.333 1.333 0 01-2.212 1.003L8 12.163 4.88 14.9a1.333 1.333 0 01-2.213-1.003V2.667a2 2 0 012-2zM9.667 3.333H6v6h4V8H7.333V7h2V5.667h-2v-1h2.334z"></path><path id="epicIconClosed" d="M12 8.04a.667.667 0 111.333 0v5.778a1.333 1.333 0 01-2.234.983L8 11.96 4.901 14.8a1.333 1.333 0 01-2.234-.982V2.667a2 2 0 012-2h3.349a.667.667 0 110 1.333h-3.35A.667.667 0 004 2.667v11.15l3.099-2.84a1.333 1.333 0 011.802 0L12 13.817zM9.805 3.529l.862.862 2.862-2.862a.667.667 0 11.942.942l-3.333 3.334a.667.667 0 01-.943 0L8.862 4.47a.667.667 0 11.943-.942z"></path><g id="zhLogo" transform="scale(0.07) translate(-60 -400)"><path d="M381.1 623h-296c-16.8 0-30.5-13.7-30.5-30.5S68.3 562 85.1 562H381c16.8 0 30.5 13.7 30.5 30.5.1 16.9-13.6 30.5-30.4 30.5z" fill="#38e1fa"></path><path d="M263.6 444.6v295.9c0 16.8-13.7 30.5-30.5 30.5s-30.5-13.7-30.5-30.5V444.6c0-16.8 13.7-30.5 30.5-30.5 16.9 0 30.5 13.7 30.5 30.5z" fill="#4bc6cf"></path><path d="M359.3 509.5 150.1 718.7c-11.9 11.9-31.2 11.9-43.1 0-11.9-11.9-11.9-31.2 0-43.1l209.2-209.2c11.9-11.9 31.2-11.9 43.1 0 11.8 11.9 11.8 31.2 0 43.1z" fill="#5d75f6"></path><path d="m150.1 466.4 209.2 209.2c11.9 11.9 11.9 31.2 0 43.1-11.9 11.9-31.2 11.9-43.1 0L107 509.5c-11.9-11.9-11.9-31.2 0-43.1 11.9-11.9 31.1-11.9 43.1 0z" fill="#91e03b"></path><path d="M202.6 605.2 190 592.5 159.5 623h43.1zM263.6 579.9l12.7 12.6 30.3-30.4h-43z" fill="#596cf5"></path><path d="M245.8 562.1h17.8v-43.2l-30.5 30.5zM220.5 623h-17.9v43.2l30.5-30.5zM263.6 562.1h-17.8l17.8 17.8zM202.6 623h17.9l-17.9-17.8z" fill="#36a5c9"></path><path d="M202.6 579.9v-17.8h-43.1l30.5 30.4zM263.6 605.2V623h43l-30.3-30.5z" fill="#41dba0"></path><path d="m220.5 562.1 12.6-12.7-30.5-30.5v43.2zM245.8 623l-12.7 12.7 30.5 30.5V623z" fill="#42b8a9"></path><path d="M202.6 562.1v17.8l17.9-17.8zM263.6 623v-17.8L245.8 623z" fill="#2cb9c6"></path><path d="m190 592.5 12.6 12.7v-25.3zM263.6 605.2l12.7-12.7-12.7-12.6z" fill="#4968f1"></path><path d="m233.1 635.7 12.7-12.7h-25.3zM233.1 549.4l-12.6 12.7h25.3zM245.8 562.1h-25.3l-17.9 17.8v25.3l17.9 17.8h25.3l17.8-17.8v-25.3z" fill="#36a5c9"></path><path d="M908.9 521.5c-37.1 0-63 25.7-63 62.4v65.7c0 7.7 6.2 13.7 14.1 13.7 7.7 0 14.1-6.1 14.1-13.7v-66.3c0-22.3 13.7-36.7 34.8-36.7 21.7 0 35.1 14.1 35.1 36.7v66.3c0 7.7 6.2 13.7 14.1 13.7 7.8 0 14.1-6.1 14.1-13.7v-65.7c-.1-36.7-26.1-62.4-63.3-62.4zM1074.4 521.7c-17.6 0-29.9 6.4-37.5 12.2v-61.1c0-7.4-6.3-13.4-14-13.4-7.9 0-14 5.9-14 13.4v176.9c0 7.6 6.2 13.6 14 13.6 7.7 0 14-6.1 14-13.6v-66.2c0-27 18-36.6 34.8-36.6 21.6 0 35.1 14 35.1 36.6v66.2c0 7.6 6.2 13.6 14 13.6 7.7 0 14-6.1 14-13.6v-65.6c0-36.7-24.8-62.4-60.4-62.4zM1283.6 521.7c-7.9 0-14 5.9-14 13.4v66.4c0 22.6-13.4 36.6-35.1 36.6-21.1 0-34.8-14.4-34.8-36.6v-66.4c0-7.4-6.3-13.4-14-13.4-7.9 0-14 5.9-14 13.4v65.7c0 36.9 25.9 62.6 62.9 62.6 37.2 0 63.1-25.8 63.1-62.6v-65.7c-.1-7.4-6.3-13.4-14.1-13.4zM654 636.7h-83.2l92.2-92.1c2.6-2.4 4-5.7 4-9.1 0-7.1-6-12.9-13.5-12.9H545.3c-7.4 0-13.5 5.8-13.5 12.9 0 7 6.2 12.9 13.5 12.9H624L531.9 640l-.1.1c-1.5 1.6-4.2 4.6-4.2 9.2 0 7.2 6.2 13.1 13.8 13.1H654c7.4 0 13.5-5.8 13.5-12.9-.1-7.2-6-12.8-13.5-12.8zM1409.1 521.3c-18 0-34.7 5.8-47.9 16.6v-65.5c0-7.4-6.3-13.4-14-13.4-7.9 0-14 5.9-14 13.4V591.7c.5 18.3 9.8 38.5 23.6 51.2l.2.2c1 1 2.1 2 3.2 2.9l1.9 1.7v-.2c12.9 10.3 29.3 15.9 47.1 15.9 41.4 0 73.8-31.2 73.8-71.1-.1-39.7-32.5-71-73.9-71zm47 71.1c0 25.7-20.6 45.9-46.8 45.9-25.5 0-45.5-18.9-46.5-43.8v-4c1-25 21-43.9 46.5-43.9 26.2 0 46.8 20.1 46.8 45.8zM802.1 619.2c-4.7 0-7.7 2.7-10.6 5.4l-.2.2c-5.9 6.7-16.4 14.7-32.6 14.7-9.4 0-18.3-2.9-25.7-8.3l73.1-73.3c2.8-3.1 4.1-6 4.1-9.6 0-3.7-1.7-7.3-4.7-10-11.9-11-29-17.3-46.7-17.3-39.9 0-71.2 31.4-71.2 71.5s31.3 71.5 71.2 71.5c20.9 0 40.1-8.6 52.6-23.5 2.3-2.6 3.8-6 3.8-8.7-.1-7.2-5.6-12.6-13.1-12.6zm-83.7-6c-2.9-6.4-4.5-13.4-4.5-20.7 0-26.3 19.7-47 44.9-47 7.7 0 15.3 2.2 20.9 6l-61.3 61.7zM1491 462.8h-7.2V459h19.1v3.8h-7.2v22h-4.8v-22h.1zM1506.8 459.1h6.4l6.8 17.6 6.6-17.6h6.3v25.7h-4.8v-19.4l-7.7 19.4h-1.5l-7.8-19.4v19.4h-4.3v-25.7z" fill="#0e1332"></path></g></defs><rect x="0" y="0" width="1440" height="2116" class="bg"></rect><g class="track"><title>Documentação</title><g class="" clip-path="url(#sidebar-contents)"><use href="#projectIcon" x="20" y="76" class="icon"></use><text x="40" y="88">Documentação</text><text x="20" y="106" class="date">Mar 23 - Jul 10</text><line x1="0" x2="1440" y1="124" y2="124" stroke="#e7e7e7"></line></g><rect x="345.33730158730157" y="66" width="813.1746031746032" height="50" rx="2" clip-path="url(#dont-overlap-sidebar)" style="filter: url(&quot;#shadow&quot;); fill: rgb(182, 162, 221);"></rect><g class=""><text x="375.33730158730157" y="94" class="boxText" clip-path="url(#dont-overlap-sidebar)">Documentação<tspan class="subtext"> (19/19)</tspan></text></g><rect x="345.33730158730157" y="110" width="813.1746031746032" height="6" clip-path="url(#dont-overlap-sidebar)" class="progressOuter"></rect><rect x="345.33730158730157" y="110" width="813.1746031746032" height="6" clip-path="url(#dont-overlap-sidebar)" class="progressInner"></rect></g><g class="track"><title>Guia de Contribuição</title><rect x="0" y="124" width="1440" height="66" class="nestedBg"></rect><g class="" clip-path="url(#sidebar-contents)"><use href="#epicIcon" x="40" y="142" class="icon"></use><text x="60" y="154">Guia de Contribuição</text><text x="40" y="172" class="date">Mar 23 - May 6</text><line x1="0" x2="1440" y1="190" y2="190" stroke="#e7e7e7"></line></g><rect x="345.33730158730157" y="132" width="328.2539682539683" height="50" rx="2" class="nestedBox" clip-path="url(#dont-overlap-sidebar)" style="filter: url(&quot;#shadow&quot;); fill: rgb(182, 162, 221);"></rect><g class=""><text x="375.33730158730157" y="160" class="boxText" clip-path="url(#dont-overlap-sidebar)">Guia de Contribuição<tspan class="subtext"> (2/2)</tspan></text></g><rect x="345.33730158730157" y="176" width="328.2539682539683" height="6" clip-path="url(#dont-overlap-sidebar)" class="progressOuter"></rect><rect x="345.33730158730157" y="176" width="328.2539682539683" height="6" clip-path="url(#dont-overlap-sidebar)" class="progressInner"></rect></g><g class="track"><title>Lean inception</title><rect x="0" y="190" width="1440" height="66" class="nestedBg"></rect><g class="" clip-path="url(#sidebar-contents)"><use href="#epicIcon" x="40" y="208" class="icon"></use><text x="60" y="220">Lean inception</text><text x="40" y="238" class="date">Mar 23 - May 26</text><line x1="0" x2="1440" y1="256" y2="256" stroke="#e7e7e7"></line></g><rect x="345.33730158730157" y="198" width="477.46031746031747" height="50" rx="2" class="nestedBox" clip-path="url(#dont-overlap-sidebar)" style="filter: url(&quot;#shadow&quot;); fill: rgb(182, 162, 221);"></rect><g class=""><text x="375.33730158730157" y="226" class="boxText" clip-path="url(#dont-overlap-sidebar)">Lean inception<tspan class="subtext"> (1/1)</tspan></text></g><rect x="345.33730158730157" y="242" width="477.46031746031747" height="6" clip-path="url(#dont-overlap-sidebar)" class="progressOuter"></rect><rect x="345.33730158730157" y="242" width="477.46031746031747" height="6" clip-path="url(#dont-overlap-sidebar)" class="progressInner"></rect></g><g class="track"><title>Plano e Monitoramento</title><rect x="0" y="256" width="1440" height="66" class="nestedBg"></rect><g class="" clip-path="url(#sidebar-contents)"><use href="#epicIcon" x="40" y="274" class="icon"></use><text x="60" y="286">Plano e Monitoramento</text><text x="40" y="304" class="date">Mar 23 - May 26</text><line x1="0" x2="1440" y1="322" y2="322" stroke="#e7e7e7"></line></g><rect x="345.33730158730157" y="264" width="477.46031746031747" height="50" rx="2" class="nestedBox" clip-path="url(#dont-overlap-sidebar)" style="filter: url(&quot;#shadow&quot;); fill: rgb(182, 162, 221);"></rect><g class=""><text x="375.33730158730157" y="292" class="boxText" clip-path="url(#dont-overlap-sidebar)">Plano e Monitoramento<tspan class="subtext"> (5/5)</tspan></text></g><rect x="345.33730158730157" y="308" width="477.46031746031747" height="6" clip-path="url(#dont-overlap-sidebar)" class="progressOuter"></rect><rect x="345.33730158730157" y="308" width="477.46031746031747" height="6" clip-path="url(#dont-overlap-sidebar)" class="progressInner"></rect></g><g class="track"><title>Heatmap e Tabela de Conhecimento</title><rect x="0" y="322" width="1440" height="66" class="nestedBg"></rect><g class="" clip-path="url(#sidebar-contents)"><use href="#epicIcon" x="40" y="340" class="icon"></use><text x="60" y="352">Heatmap e Tabela de Conhecimento</text><text x="40" y="370" class="date">Mar 23 - May 26</text><line x1="0" x2="1440" y1="388" y2="388" stroke="#e7e7e7"></line></g><rect x="345.33730158730157" y="330" width="477.46031746031747" height="50" rx="2" class="nestedBox" clip-path="url(#dont-overlap-sidebar)" style="filter: url(&quot;#shadow&quot;); fill: rgb(182, 162, 221);"></rect><g class=""><text x="375.33730158730157" y="358" class="boxText" clip-path="url(#dont-overlap-sidebar)">Heatmap e Tabela de Conhecimento<tspan class="subtext"> (2/2)</tspan></text></g><rect x="345.33730158730157" y="374" width="477.46031746031747" height="6" clip-path="url(#dont-overlap-sidebar)" class="progressOuter"></rect><rect x="345.33730158730157" y="374" width="477.46031746031747" height="6" clip-path="url(#dont-overlap-sidebar)" class="progressInner"></rect></g><g class="track"><title>Documentações</title><rect x="0" y="388" width="1440" height="66" class="nestedBg"></rect><g class="" clip-path="url(#sidebar-contents)"><use href="#epicIcon" x="40" y="406" class="icon"></use><text x="60" y="418">Documentações</text><text x="40" y="436" class="date">Mar 23 - May 26</text><line x1="0" x2="1440" y1="454" y2="454" stroke="#e7e7e7"></line></g><rect x="345.33730158730157" y="396" width="477.46031746031747" height="50" rx="2" class="nestedBox" clip-path="url(#dont-overlap-sidebar)" style="filter: url(&quot;#shadow&quot;); fill: rgb(182, 162, 221);"></rect><g class=""><text x="375.33730158730157" y="424" class="boxText" clip-path="url(#dont-overlap-sidebar)">Documentações<tspan class="subtext"> (7/7)</tspan></text></g><rect x="345.33730158730157" y="440" width="477.46031746031747" height="6" clip-path="url(#dont-overlap-sidebar)" class="progressOuter"></rect><rect x="345.33730158730157" y="440" width="477.46031746031747" height="6" clip-path="url(#dont-overlap-sidebar)" class="progressInner"></rect></g><g class="track"><title>Análise de Notebook</title><rect x="0" y="454" width="1440" height="66" class="nestedBg"></rect><g class="" clip-path="url(#sidebar-contents)"><use href="#epicIcon" x="40" y="472" class="icon"></use><text x="60" y="484">Análise de Notebook</text><text x="40" y="502" class="date">Mar 23 - Jul 8</text><line x1="0" x2="1440" y1="520" y2="520" stroke="#e7e7e7"></line></g><rect x="345.33730158730157" y="462" width="798.2539682539683" height="50" rx="2" class="nestedBox" clip-path="url(#dont-overlap-sidebar)" style="filter: url(&quot;#shadow&quot;); fill: rgb(182, 162, 221);"></rect><g class=""><text x="375.33730158730157" y="490" class="boxText" clip-path="url(#dont-overlap-sidebar)">Análise de Notebook<tspan class="subtext"> (2/2)</tspan></text></g><rect x="345.33730158730157" y="506" width="798.2539682539683" height="6" clip-path="url(#dont-overlap-sidebar)" class="progressOuter"></rect><rect x="345.33730158730157" y="506" width="798.2539682539683" height="6" clip-path="url(#dont-overlap-sidebar)" class="progressInner"></rect></g><g class="track"><title>Infraestrutura</title><g class="" clip-path="url(#sidebar-contents)"><use href="#projectIcon" x="20" y="538" class="icon"></use><text x="40" y="550">Infraestrutura</text><text x="20" y="568" class="date">Mar 23 - Jul 11</text><line x1="0" x2="1440" y1="586" y2="586" stroke="#e7e7e7"></line></g><rect x="345.33730158730157" y="528" width="820.6349206349206" height="50" rx="2" clip-path="url(#dont-overlap-sidebar)" style="filter: url(&quot;#shadow&quot;); fill: rgb(200, 205, 234);"></rect><g class=""><text x="375.33730158730157" y="556" class="boxText" clip-path="url(#dont-overlap-sidebar)">Infraestrutura<tspan class="subtext"> (9/11)</tspan></text></g><rect x="345.33730158730157" y="572" width="820.6349206349206" height="6" clip-path="url(#dont-overlap-sidebar)" class="progressOuter"></rect><rect x="345.33730158730157" y="572" width="671.4285714285714" height="6" clip-path="url(#dont-overlap-sidebar)" class="progressInner"></rect></g><g class="track"><title>Deploy webservice</title><rect x="0" y="586" width="1440" height="66" class="nestedBg"></rect><g class="" clip-path="url(#sidebar-contents)"><use href="#epicIcon" x="40" y="604" class="icon"></use><text x="60" y="616">Deploy webservice</text><text x="40" y="634" class="date">Mar 23 - May 26</text><line x1="0" x2="1440" y1="652" y2="652" stroke="#e7e7e7"></line></g><rect x="345.33730158730157" y="594" width="477.46031746031747" height="50" rx="2" class="nestedBox" clip-path="url(#dont-overlap-sidebar)" style="filter: url(&quot;#shadow&quot;); fill: rgb(200, 205, 234);"></rect><g class=""><text x="375.33730158730157" y="622" class="boxText" clip-path="url(#dont-overlap-sidebar)">Deploy webservice<tspan class="subtext"></tspan></text></g></g><g class="track"><title>CI/CD pipelines</title><rect x="0" y="652" width="1440" height="66" class="nestedBg"></rect><g class="" clip-path="url(#sidebar-contents)"><use href="#epicIcon" x="40" y="670" class="icon"></use><text x="60" y="682">CI/CD pipelines</text><text x="40" y="700" class="date">Mar 23 - Jul 11</text><line x1="0" x2="1440" y1="718" y2="718" stroke="#e7e7e7"></line></g><rect x="345.33730158730157" y="660" width="820.6349206349206" height="50" rx="2" class="nestedBox" clip-path="url(#dont-overlap-sidebar)" style="filter: url(&quot;#shadow&quot;); fill: rgb(200, 205, 234);"></rect><g class=""><text x="375.33730158730157" y="688" class="boxText" clip-path="url(#dont-overlap-sidebar)">CI/CD pipelines<tspan class="subtext"> (9/9)</tspan></text></g><rect x="345.33730158730157" y="704" width="820.6349206349206" height="6" clip-path="url(#dont-overlap-sidebar)" class="progressOuter"></rect><rect x="345.33730158730157" y="704" width="820.6349206349206" height="6" clip-path="url(#dont-overlap-sidebar)" class="progressInner"></rect></g><g class="track"><title>Cobertura de Testes</title><rect x="0" y="718" width="1440" height="66" class="nestedBg"></rect><g class="" clip-path="url(#sidebar-contents)"><use href="#epicIcon" x="40" y="736" class="icon"></use><text x="60" y="748">Cobertura de Testes</text><text x="40" y="766" class="date">Mar 23 - Jul 11</text><line x1="0" x2="1440" y1="784" y2="784" stroke="#e7e7e7"></line></g><rect x="345.33730158730157" y="726" width="820.6349206349206" height="50" rx="2" class="nestedBox" clip-path="url(#dont-overlap-sidebar)" style="filter: url(&quot;#shadow&quot;); fill: rgb(200, 205, 234);"></rect><g class=""><text x="375.33730158730157" y="754" class="boxText" clip-path="url(#dont-overlap-sidebar)">Cobertura de Testes<tspan class="subtext"> (0/2)</tspan></text></g><rect x="345.33730158730157" y="770" width="820.6349206349206" height="6" clip-path="url(#dont-overlap-sidebar)" class="progressOuter"></rect></g><g class="track"><title>Métricas Sonar Cloud</title><rect x="0" y="784" width="1440" height="66" class="nestedBg"></rect><g class="" clip-path="url(#sidebar-contents)"><use href="#epicIcon" x="40" y="802" class="icon"></use><text x="60" y="814">Métricas Sonar Cloud</text><text x="40" y="832" class="date">Mar 23 - Jul 11</text><line x1="0" x2="1440" y1="850" y2="850" stroke="#e7e7e7"></line></g><rect x="345.33730158730157" y="792" width="820.6349206349206" height="50" rx="2" class="nestedBox" clip-path="url(#dont-overlap-sidebar)" style="filter: url(&quot;#shadow&quot;); fill: rgb(200, 205, 234);"></rect><g class=""><text x="375.33730158730157" y="820" class="boxText" clip-path="url(#dont-overlap-sidebar)">Métricas Sonar Cloud<tspan class="subtext"></tspan></text></g></g><g class="track"><title>Deploy PypI packages</title><rect x="0" y="850" width="1440" height="66" class="nestedBg"></rect><g class="" clip-path="url(#sidebar-contents)"><use href="#epicIcon" x="40" y="868" class="icon"></use><text x="60" y="880">Deploy PypI packages</text><text x="40" y="898" class="date">Mar 23 - Jul 11</text><line x1="0" x2="1440" y1="916" y2="916" stroke="#e7e7e7"></line></g><rect x="345.33730158730157" y="858" width="820.6349206349206" height="50" rx="2" class="nestedBox" clip-path="url(#dont-overlap-sidebar)" style="filter: url(&quot;#shadow&quot;); fill: rgb(200, 205, 234);"></rect><g class=""><text x="375.33730158730157" y="886" class="boxText" clip-path="url(#dont-overlap-sidebar)">Deploy PypI packages<tspan class="subtext"></tspan></text></g></g><g class="track"><title>Visão do Produto</title><g class="" clip-path="url(#sidebar-contents)"><use href="#projectIcon" x="20" y="934" class="icon"></use><text x="40" y="946">Visão do Produto</text><text x="20" y="964" class="date">Mar 23 - Jun 10</text><line x1="0" x2="1440" y1="982" y2="982" stroke="#e7e7e7"></line></g><rect x="345.33730158730157" y="924" width="589.3650793650794" height="50" rx="2" clip-path="url(#dont-overlap-sidebar)" style="filter: url(&quot;#shadow&quot;); fill: rgb(133, 213, 250);"></rect><g class=""><text x="375.33730158730157" y="952" class="boxText" clip-path="url(#dont-overlap-sidebar)">Visão do Produto<tspan class="subtext">– No Epics yet</tspan></text></g></g><g class="track"><title>Backlog do produto</title><rect x="0" y="982" width="1440" height="66" class="nestedBg"></rect><g class="" clip-path="url(#sidebar-contents)"><use href="#epicIcon" x="40" y="1000" class="icon"></use><text x="60" y="1012">Backlog do produto</text><text x="40" y="1030" class="date">Mar 23 - May 26</text><line x1="0" x2="1440" y1="1048" y2="1048" stroke="#e7e7e7"></line></g><rect x="345.33730158730157" y="990" width="477.46031746031747" height="50" rx="2" class="nestedBox" clip-path="url(#dont-overlap-sidebar)" style="filter: url(&quot;#shadow&quot;); fill: rgb(133, 213, 250);"></rect><g class=""><text x="375.33730158730157" y="1018" class="boxText" clip-path="url(#dont-overlap-sidebar)">Backlog do produto<tspan class="subtext"></tspan></text></g></g><g class="track"><title>Prototipagem</title><rect x="0" y="1048" width="1440" height="66" class="nestedBg"></rect><g class="" clip-path="url(#sidebar-contents)"><use href="#epicIcon" x="40" y="1066" class="icon"></use><text x="60" y="1078">Prototipagem</text><text x="40" y="1096" class="date">Mar 23 - Jun 10</text><line x1="0" x2="1440" y1="1114" y2="1114" stroke="#e7e7e7"></line></g><rect x="345.33730158730157" y="1056" width="589.3650793650794" height="50" rx="2" class="nestedBox" clip-path="url(#dont-overlap-sidebar)" style="filter: url(&quot;#shadow&quot;); fill: rgb(133, 213, 250);"></rect><g class=""><text x="375.33730158730157" y="1084" class="boxText" clip-path="url(#dont-overlap-sidebar)">Prototipagem<tspan class="subtext"></tspan></text></g></g><g class="track"><title>R1</title><g class="" clip-path="url(#sidebar-contents)"><use href="#projectIcon" x="20" y="1132" class="icon"></use><text x="40" y="1144">R1</text><text x="20" y="1162" class="date">Mar 22 - Jun 4</text><line x1="0" x2="1440" y1="1180" y2="1180" stroke="#e7e7e7"></line></g><rect x="337.87698412698415" y="1122" width="552.063492063492" height="50" rx="2" clip-path="url(#dont-overlap-sidebar)" style="filter: url(&quot;#shadow&quot;); fill: rgb(145, 226, 237);"></rect><g class=""><text x="367.87698412698415" y="1150" class="boxText" clip-path="url(#dont-overlap-sidebar)">R1<tspan class="subtext"> (7/11)</tspan></text></g><rect x="337.87698412698415" y="1166" width="552.063492063492" height="6" clip-path="url(#dont-overlap-sidebar)" class="progressOuter"></rect><rect x="337.87698412698415" y="1166" width="351.3131313131313" height="6" clip-path="url(#dont-overlap-sidebar)" class="progressInner"></rect></g><g class="track"><title>Corrigir sistema de autenticação</title><rect x="0" y="1180" width="1440" height="66" class="nestedBg"></rect><g class="" clip-path="url(#sidebar-contents)"><use href="#epicIcon" x="40" y="1198" class="icon"></use><text x="60" y="1210">Corrigir sistema de autenticação</text><text x="40" y="1228" class="date">Mar 23 - May 26</text><line x1="0" x2="1440" y1="1246" y2="1246" stroke="#e7e7e7"></line></g><rect x="345.33730158730157" y="1188" width="477.46031746031747" height="50" rx="2" class="nestedBox" clip-path="url(#dont-overlap-sidebar)" style="filter: url(&quot;#shadow&quot;); fill: rgb(145, 226, 237);"></rect><g class=""><text x="375.33730158730157" y="1216" class="boxText" clip-path="url(#dont-overlap-sidebar)">Corrigir sistema de autenticação<tspan class="subtext"> (1/1)</tspan></text></g><rect x="345.33730158730157" y="1232" width="477.46031746031747" height="6" clip-path="url(#dont-overlap-sidebar)" class="progressOuter"></rect><rect x="345.33730158730157" y="1232" width="477.46031746031747" height="6" clip-path="url(#dont-overlap-sidebar)" class="progressInner"></rect></g><g class="track"><title>Melhoria na navegabilidade do front</title><rect x="0" y="1246" width="1440" height="66" class="nestedBg"></rect><g class="" clip-path="url(#sidebar-contents)"><use href="#epicIcon" x="40" y="1264" class="icon"></use><text x="60" y="1276">Melhoria na navegabilidade do front</text><text x="40" y="1294" class="date">Mar 23 - May 26</text><line x1="0" x2="1440" y1="1312" y2="1312" stroke="#e7e7e7"></line></g><rect x="345.33730158730157" y="1254" width="477.46031746031747" height="50" rx="2" class="nestedBox" clip-path="url(#dont-overlap-sidebar)" style="filter: url(&quot;#shadow&quot;); fill: rgb(145, 226, 237);"></rect><g class=""><text x="375.33730158730157" y="1282" class="boxText" clip-path="url(#dont-overlap-sidebar)">Melhoria na navegabilidade do front<tspan class="subtext"> (1/5)</tspan></text></g><rect x="345.33730158730157" y="1298" width="477.46031746031747" height="6" clip-path="url(#dont-overlap-sidebar)" class="progressOuter"></rect><rect x="345.33730158730157" y="1298" width="95.4920634920635" height="6" clip-path="url(#dont-overlap-sidebar)" class="progressInner"></rect></g><g class="track"><title>Inserção de threshold via JSON</title><rect x="0" y="1312" width="1440" height="66" class="nestedBg"></rect><g class="" clip-path="url(#sidebar-contents)"><use href="#epicIcon" x="40" y="1330" class="icon"></use><text x="60" y="1342">Inserção de threshold via JSON</text><text x="40" y="1360" class="date">Mar 23 - May 26</text><line x1="0" x2="1440" y1="1378" y2="1378" stroke="#e7e7e7"></line></g><rect x="345.33730158730157" y="1320" width="477.46031746031747" height="50" rx="2" class="nestedBox" clip-path="url(#dont-overlap-sidebar)" style="filter: url(&quot;#shadow&quot;); fill: rgb(145, 226, 237);"></rect><g class=""><text x="375.33730158730157" y="1348" class="boxText" clip-path="url(#dont-overlap-sidebar)">Inserção de threshold via JSON<tspan class="subtext"> (5/5)</tspan></text></g><rect x="345.33730158730157" y="1364" width="477.46031746031747" height="6" clip-path="url(#dont-overlap-sidebar)" class="progressOuter"></rect><rect x="345.33730158730157" y="1364" width="477.46031746031747" height="6" clip-path="url(#dont-overlap-sidebar)" class="progressInner"></rect></g><g class="track"><title>R2</title><g class="" clip-path="url(#sidebar-contents)"><use href="#projectIcon" x="20" y="1396" class="icon"></use><text x="40" y="1408">R2</text><text x="20" y="1426" class="date">Jun 3 - Jun 25</text><line x1="0" x2="1440" y1="1444" y2="1444" stroke="#e7e7e7"></line></g><rect x="882.4801587301587" y="1386" width="164.1269841269842" height="50" rx="2" clip-path="url(#dont-overlap-sidebar)" style="filter: url(&quot;#shadow&quot;); fill: rgb(182, 162, 221);"></rect><g class=""><use href="#projectIcon" x="892.4801587301587" y="1401" class="icon"></use><text x="912.4801587301587" y="1414" class="boxText" clip-path="url(#dont-overlap-sidebar)">R2<tspan class="subtext"> (0/9)</tspan></text></g><rect x="882.4801587301587" y="1430" width="164.1269841269842" height="6" clip-path="url(#dont-overlap-sidebar)" class="progressOuter"></rect></g><g class="track"><title>Melhorar CLI</title><rect x="0" y="1444" width="1440" height="66" class="nestedBg"></rect><g class="" clip-path="url(#sidebar-contents)"><use href="#epicIcon" x="40" y="1462" class="icon"></use><text x="60" y="1474">Melhorar CLI</text><text x="40" y="1492" class="date">Jun 4 - Jun 25</text><line x1="0" x2="1440" y1="1510" y2="1510" stroke="#e7e7e7"></line></g><rect x="889.9404761904761" y="1452" width="156.66666666666674" height="50" rx="2" class="nestedBox" clip-path="url(#dont-overlap-sidebar)" style="filter: url(&quot;#shadow&quot;); fill: rgb(182, 162, 221);"></rect><g class=""><use href="#epicIcon" x="899.9404761904761" y="1467" class="icon"></use><text x="919.9404761904761" y="1480" class="boxText" clip-path="url(#dont-overlap-sidebar)">Melhorar CLI<tspan class="subtext"> (0/2)</tspan></text></g><rect x="889.9404761904761" y="1496" width="156.66666666666674" height="6" clip-path="url(#dont-overlap-sidebar)" class="progressOuter"></rect></g><g class="track"><title>Configuração das métricas via frontend</title><rect x="0" y="1510" width="1440" height="66" class="nestedBg"></rect><g class="" clip-path="url(#sidebar-contents)"><use href="#epicIcon" x="40" y="1528" class="icon"></use><text x="60" y="1540">Configuração das métricas via fronten…</text><text x="40" y="1558" class="date">Jun 4 - Jun 25</text><line x1="0" x2="1440" y1="1576" y2="1576" stroke="#e7e7e7"></line></g><rect x="889.9404761904761" y="1518" width="156.66666666666674" height="50" rx="2" class="nestedBox" clip-path="url(#dont-overlap-sidebar)" style="filter: url(&quot;#shadow&quot;); fill: rgb(182, 162, 221);"></rect><g class=""><use href="#epicIcon" x="899.9404761904761" y="1533" class="icon"></use><text x="919.9404761904761" y="1546" class="boxText" clip-path="url(#dont-overlap-sidebar)">Configuração das métricas via frontend<tspan class="subtext"></tspan></text></g></g><g class="track"><title>Novos gráficos para o Frontend</title><rect x="0" y="1576" width="1440" height="66" class="nestedBg"></rect><g class="" clip-path="url(#sidebar-contents)"><use href="#epicIcon" x="40" y="1594" class="icon"></use><text x="60" y="1606">Novos gráficos para o Frontend</text><text x="40" y="1624" class="date">Jun 4 - Jun 25</text><line x1="0" x2="1440" y1="1642" y2="1642" stroke="#e7e7e7"></line></g><rect x="889.9404761904761" y="1584" width="156.66666666666674" height="50" rx="2" class="nestedBox" clip-path="url(#dont-overlap-sidebar)" style="filter: url(&quot;#shadow&quot;); fill: rgb(182, 162, 221);"></rect><g class=""><use href="#epicIcon" x="899.9404761904761" y="1599" class="icon"></use><text x="919.9404761904761" y="1612" class="boxText" clip-path="url(#dont-overlap-sidebar)">Novos gráficos para o Frontend<tspan class="subtext"> (0/4)</tspan></text></g><rect x="889.9404761904761" y="1628" width="156.66666666666674" height="6" clip-path="url(#dont-overlap-sidebar)" class="progressOuter"></rect></g><g class="track"><title>Generalizar Parser</title><rect x="0" y="1642" width="1440" height="66" class="nestedBg"></rect><g class="" clip-path="url(#sidebar-contents)"><use href="#epicIcon" x="40" y="1660" class="icon"></use><text x="60" y="1672">Generalizar Parser</text><text x="40" y="1690" class="date">Jun 3 - Jun 25</text><line x1="0" x2="1440" y1="1708" y2="1708" stroke="#e7e7e7"></line></g><rect x="882.4801587301587" y="1650" width="164.1269841269842" height="50" rx="2" class="nestedBox" clip-path="url(#dont-overlap-sidebar)" style="filter: url(&quot;#shadow&quot;); fill: rgb(182, 162, 221);"></rect><g class=""><use href="#epicIcon" x="892.4801587301587" y="1665" class="icon"></use><text x="912.4801587301587" y="1678" class="boxText" clip-path="url(#dont-overlap-sidebar)">Generalizar Parser<tspan class="subtext"> (0/1)</tspan></text></g><rect x="882.4801587301587" y="1694" width="164.1269841269842" height="6" clip-path="url(#dont-overlap-sidebar)" class="progressOuter"></rect></g><g class="track"><title>Rodar no Github Actions GitLab CI/CD</title><rect x="0" y="1708" width="1440" height="66" class="nestedBg"></rect><g class="" clip-path="url(#sidebar-contents)"><use href="#epicIcon" x="40" y="1726" class="icon"></use><text x="60" y="1738">Rodar no Github Actions GitLab CI/CD</text><text x="40" y="1756" class="date">Jun 3 - Jun 25</text><line x1="0" x2="1440" y1="1774" y2="1774" stroke="#e7e7e7"></line></g><rect x="882.4801587301587" y="1716" width="164.1269841269842" height="50" rx="2" class="nestedBox" clip-path="url(#dont-overlap-sidebar)" style="filter: url(&quot;#shadow&quot;); fill: rgb(182, 162, 221);"></rect><g class=""><use href="#epicIcon" x="892.4801587301587" y="1731" class="icon"></use><text x="912.4801587301587" y="1744" class="boxText" clip-path="url(#dont-overlap-sidebar)">Rodar no Github Actions GitLab CI/CD<tspan class="subtext"> (0/2)</tspan></text></g><rect x="882.4801587301587" y="1760" width="164.1269841269842" height="6" clip-path="url(#dont-overlap-sidebar)" class="progressOuter"></rect></g><g class="track"><title>R3</title><g class="" clip-path="url(#sidebar-contents)"><use href="#projectIcon" x="20" y="1792" class="icon"></use><text x="40" y="1804">R3</text><text x="20" y="1822" class="date">Jun 25 - Jul 10</text><line x1="0" x2="1440" y1="1840" y2="1840" stroke="#e7e7e7"></line></g><rect x="1046.607142857143" y="1782" width="111.90476190476193" height="50" rx="2" clip-path="url(#dont-overlap-sidebar)" style="filter: url(&quot;#shadow&quot;); fill: rgb(200, 205, 234);"></rect><g class=""><use href="#projectIcon" x="1056.607142857143" y="1797" class="icon"></use><text x="1076.607142857143" y="1810" class="boxText" clip-path="url(#dont-overlap-sidebar)">R3<tspan class="subtext"> (3/6)</tspan></text></g><rect x="1046.607142857143" y="1826" width="111.90476190476193" height="6" clip-path="url(#dont-overlap-sidebar)" class="progressOuter"></rect><rect x="1046.607142857143" y="1826" width="55.95238095238096" height="6" clip-path="url(#dont-overlap-sidebar)" class="progressInner"></rect></g><g class="track"><title>Bug/Hot fixes</title><rect x="0" y="1840" width="1440" height="66" class="nestedBg"></rect><g class="" clip-path="url(#sidebar-contents)"><use href="#epicIcon" x="40" y="1858" class="icon"></use><text x="60" y="1870">Bug/Hot fixes</text><text x="40" y="1888" class="date">Jun 25 - Jul 10</text><line x1="0" x2="1440" y1="1906" y2="1906" stroke="#e7e7e7"></line></g><rect x="1046.607142857143" y="1848" width="111.90476190476193" height="50" rx="2" class="nestedBox" clip-path="url(#dont-overlap-sidebar)" style="filter: url(&quot;#shadow&quot;); fill: rgb(200, 205, 234);"></rect><g class=""><use href="#epicIcon" x="1056.607142857143" y="1863" class="icon"></use><text x="1076.607142857143" y="1876" class="boxText" clip-path="url(#dont-overlap-sidebar)">Bug/Hot fixes<tspan class="subtext"> (3/3)</tspan></text></g><rect x="1046.607142857143" y="1892" width="111.90476190476193" height="6" clip-path="url(#dont-overlap-sidebar)" class="progressOuter"></rect><rect x="1046.607142857143" y="1892" width="111.90476190476193" height="6" clip-path="url(#dont-overlap-sidebar)" class="progressInner"></rect></g><g class="track"><title>CRUD de Organizações, Produtos e Repositórios</title><rect x="0" y="1906" width="1440" height="66" class="nestedBg"></rect><g class="" clip-path="url(#sidebar-contents)"><use href="#epicIcon" x="40" y="1924" class="icon"></use><text x="60" y="1936">CRUD de Organizações, Produtos e Repo…</text><text x="40" y="1954" class="date">Jun 25 - Jul 10</text><line x1="0" x2="1440" y1="1972" y2="1972" stroke="#e7e7e7"></line></g><rect x="1046.607142857143" y="1914" width="111.90476190476193" height="50" rx="2" class="nestedBox" clip-path="url(#dont-overlap-sidebar)" style="filter: url(&quot;#shadow&quot;); fill: rgb(200, 205, 234);"></rect><g class=""><use href="#epicIcon" x="1056.607142857143" y="1929" class="icon"></use><text x="1076.607142857143" y="1942" class="boxText" clip-path="url(#dont-overlap-sidebar)">CRUD de Organizações, Produtos e Repositórios<tspan class="subtext"> (0/2)</tspan></text></g><rect x="1046.607142857143" y="1958" width="111.90476190476193" height="6" clip-path="url(#dont-overlap-sidebar)" class="progressOuter"></rect></g><g class="track"><title>Melhorar Legibilidade do código fonte do service</title><rect x="0" y="1972" width="1440" height="66" class="nestedBg"></rect><g class="" clip-path="url(#sidebar-contents)"><use href="#epicIcon" x="40" y="1990" class="icon"></use><text x="60" y="2002">Melhorar Legibilidade do código fonte…</text><text x="40" y="2020" class="date">Jun 25 - Jul 10</text><line x1="0" x2="1440" y1="2038" y2="2038" stroke="#e7e7e7"></line></g><rect x="1046.607142857143" y="1980" width="111.90476190476193" height="50" rx="2" class="nestedBox" clip-path="url(#dont-overlap-sidebar)" style="filter: url(&quot;#shadow&quot;); fill: rgb(200, 205, 234);"></rect><g class=""><use href="#epicIcon" x="1056.607142857143" y="1995" class="icon"></use><text x="1076.607142857143" y="2008" class="boxText" clip-path="url(#dont-overlap-sidebar)">Melhorar Legibilidade do código fonte do service<tspan class="subtext"></tspan></text></g></g><g class="track"><title>Autenticação com Gitlab</title><rect x="0" y="2038" width="1440" height="66" class="nestedBg"></rect><g class="" clip-path="url(#sidebar-contents)"><use href="#epicIcon" x="40" y="2056" class="icon"></use><text x="60" y="2068">Autenticação com Gitlab</text><text x="40" y="2086" class="date">Jun 25 - Jul 10</text><line x1="0" x2="1440" y1="2104" y2="2104" stroke="#e7e7e7"></line></g><rect x="1046.607142857143" y="2046" width="111.90476190476193" height="50" rx="2" class="nestedBox" clip-path="url(#dont-overlap-sidebar)" style="filter: url(&quot;#shadow&quot;); fill: rgb(200, 205, 234);"></rect><g class=""><use href="#epicIcon" x="1056.607142857143" y="2061" class="icon"></use><text x="1076.607142857143" y="2074" class="boxText" clip-path="url(#dont-overlap-sidebar)">Autenticação com Gitlab<tspan class="subtext"> (0/1)</tspan></text></g><rect x="1046.607142857143" y="2090" width="111.90476190476193" height="6" clip-path="url(#dont-overlap-sidebar)" class="progressOuter"></rect></g><g><rect x="0" y="0" width="1440" height="62" class="header" style="filter: url(&quot;#shadow&quot;);"></rect><a href="https://www.zenhub.com"><use href="#zhLogo" x="20" y="12" class="logoIcon"></use></a><text x="52" y="50" class="headerDate">May 26, 2023</text></g><g clip-path="url(#dont-overlap-sidebar)"><text x="185.87301587301587" y="30" class="tick">March 2023</text><text x="417.1428571428571" y="30" class="tick">April 2023</text><text x="640.952380952381" y="30" class="tick">May 2023</text><text x="872.2222222222223" y="30" class="tick">June 2023</text><text x="1096.031746031746" y="30" class="tick">July 2023</text><text x="1327.3015873015875" y="30" class="tick">August 2023</text>;</g><rect x="350" y="0" width="20" height="2116" fill="url(#sidebarShadow)"></rect><line x1="350" x2="350" y1="50" y2="2116" class="sidebarDivider"></line></svg>